<?xml version="1.0" standalone="no"?>
<!DOCTYPE svg PUBLIC "-//W3C//DTD SVG 20010904//EN"
 "http://www.w3.org/TR/2001/REC-SVG-20010904/DTD/svg10.dtd">
<svg version="1.0" xmlns="http://www.w3.org/2000/svg"
 width="128.000000pt" height="128.000000pt" viewBox="0 0 128.000000 128.000000"
 preserveAspectRatio="xMidYMid meet">
<metadata>
Created by potrace 1.11, written by Peter Selinger 2001-2013
</metadata>
<g transform="translate(0.000000,128.000000) scale(0.100000,-0.100000)"
fill="#000000" stroke="none">
<path d="M1100 1262 c-176 -23 -359 -118 -482 -251 -31 -33 -64 -61 -74 -61
-9 0 -36 11 -58 24 -40 23 -62 29 -100 27 -21 -1 -196 -168 -196 -186 0 -7 26
-37 58 -68 62 -58 104 -75 161 -64 22 5 34 0 51 -18 28 -29 25 -34 -26 -42
-60 -9 -69 -21 -40 -52 l25 -26 -43 3 c-54 5 -100 -18 -126 -61 -22 -35 -26
-72 -10 -82 7 -4 6 -13 -1 -26 -5 -11 -9 -37 -7 -57 3 -34 5 -37 32 -35 16 1
31 5 35 8 7 8 -21 25 -31 19 -17 -11 -7 44 12 69 26 32 25 47 -1 47 -16 0 -19
4 -14 23 10 31 35 55 69 63 28 7 28 6 14 -17 -18 -30 -24 -99 -8 -109 14 -9
110 10 110 21 0 5 5 9 10 9 6 0 3 -16 -6 -38 -9 -20 -18 -43 -21 -50 -11 -26
24 -10 41 19 18 31 24 97 10 121 -4 7 7 0 25 -17 27 -25 33 -27 41 -15 5 8 10
21 11 28 2 16 4 23 13 49 7 22 8 22 31 5 20 -14 23 -23 18 -58 -8 -62 11 -103
76 -168 l59 -58 77 78 c121 123 130 146 86 216 -36 57 -33 88 15 130 162 142
263 345 267 537 l2 66 -40 0 c-22 0 -51 -1 -65 -3z"/>
<path d="M294 1155 c-8 -19 3 -35 26 -35 19 0 30 17 23 38 -6 17 -42 15 -49
-3z"/>
<path d="M83 1025 c-38 -40 -41 -51 -13 -60 11 -3 20 -9 20 -13 0 -4 7 -15 15
-25 13 -18 16 -16 55 23 39 39 41 42 23 55 -10 8 -21 15 -25 15 -4 0 -10 9
-13 20 -9 28 -25 24 -62 -15z"/>
<path d="M1200 964 c-41 -99 -77 -160 -129 -217 -18 -19 -22 -30 -14 -38 14
-14 42 15 98 101 35 54 95 183 95 204 0 3 -6 6 -14 6 -7 0 -24 -25 -36 -56z"/>
<path d="M112 749 c-34 -33 -40 -49 -19 -49 16 0 67 52 67 68 0 20 -14 14 -48
-19z"/>
<path d="M165 720 c-21 -23 -12 -39 13 -24 19 12 29 44 14 44 -5 0 -17 -9 -27
-20z"/>
<path d="M175 655 c-64 -66 -44 -86 22 -22 36 35 45 49 36 58 -9 9 -23 0 -58
-36z"/>
<path d="M45 680 c-11 -17 5 -32 21 -19 8 6 14 15 14 20 0 12 -27 11 -35 -1z"/>
<path d="M97 655 c-20 -19 -37 -39 -37 -44 0 -21 27 -10 60 24 47 49 27 66
-23 20z"/>
<path d="M991 666 c-14 -15 -18 -26 -12 -30 13 -8 51 15 51 31 0 23 -17 22
-39 -1z"/>
<path d="M71 549 c-31 -30 -40 -44 -32 -52 8 -8 23 0 53 31 30 30 39 45 32 52
-8 8 -23 -1 -53 -31z"/>
<path d="M1010 421 l-36 -36 40 -37 c45 -44 52 -46 61 -17 4 11 18 25 31 31
30 14 30 23 -1 44 -13 9 -27 24 -30 35 -9 27 -24 22 -65 -20z"/>
<path d="M327 308 c-20 -12 3 -22 51 -19 12 0 22 7 22 16 0 16 -49 18 -73 3z"/>
<path d="M590 269 c-32 -35 -38 -49 -17 -49 16 0 67 52 67 68 0 21 -19 13 -50
-19z"/>
<path d="M643 245 c-17 -19 -16 -35 2 -35 12 0 35 28 35 44 0 11 -25 5 -37 -9z"/>
<path d="M530 204 c-9 -10 -10 -18 -3 -25 8 -8 14 -5 22 9 13 25 -2 38 -19 16z"/>
<path d="M652 177 c-28 -28 -39 -46 -33 -55 6 -10 20 -2 55 32 25 25 46 50 46
56 0 21 -28 8 -68 -33z"/>
<path d="M572 174 c-33 -37 -40 -54 -22 -54 18 0 82 68 75 79 -10 17 -19 13
-53 -25z"/>
<path d="M997 192 c-26 -5 -19 -47 8 -47 11 0 21 8 23 19 5 23 -7 34 -31 28z"/>
<path d="M546 69 c-29 -30 -36 -43 -28 -51 9 -9 22 0 52 32 35 38 43 60 21 60
-4 0 -24 -18 -45 -41z"/>
</g>
</svg>
